<svg xmlns="http://www.w3.org/2000/svg" width="734" height="216" viewBox="0 0 734 216">
<rect width="100%" height="100%" rx="12" fill="#0d1117" stroke="#30363d"/>
<text x="24" y="44" font-family="Segoe UI,Helvetica,Arial,sans-serif" font-size="17" font-weight="600" fill="#e6edf3">@Yiexxx · GitHub 贡献脉搏</text>
<text x="24" y="208" font-family="Segoe UI,Helvetica,Arial,sans-serif" font-size="11" fill="#8b949e">更新于 2026-09-09 · 每天 08:23 自动刷新</text>
<text x="24" y="76" font-family="Segoe UI,Helvetica,Arial,sans-serif" font-size="13" fill="#8b949e">近一年贡献</text>
<text x="97" y="76" font-family="Segoe UI,Helvetica,Arial,sans-serif" font-size="15" font-weight="600" fill="#39d353">13</text>
<text x="149" y="76" font-family="Segoe UI,Helvetica,Arial,sans-serif" font-size="13" fill="#8b949e">当前连续</text>
<text x="209" y="76" font-family="Segoe UI,Helvetica,Arial,sans-serif" font-size="15" font-weight="600" fill="#7ee787">1</text>
<text x="252" y="76" font-family="Segoe UI,Helvetica,Arial,sans-serif" font-size="13" fill="#8b949e">最长连续</text>
<text x="312" y="76" font-family="Segoe UI,Helvetica,Arial,sans-serif" font-size="15" font-weight="600" fill="#7ee787">1</text>
<rect x="24" y="100" width="10" height="10" rx="2" fill="#161b22"/>
<rect x="24" y="113" width="10" height="10" rx="2" fill="#161b22"/>
<rect x="24" y="126" width="10" height="10" rx="2" fill="#161b22"/>
<rect x="24" y="139" width="10" height="10" rx="2" fill="#161b22"/>
<rect x="24" y="152" width="10" height="10" rx="2" fill="#161b22"/>
<rect x="24" y="165" width="10" height="10" rx="2" fill="#161b22"/>
<rect x="24" y="178" width="10" height="10" rx="2" fill="#161b22"/>
<rect x="37" y="100" width="10" height="10" rx="2" fill="#161b22"/>
<rect x="37" y="113" width="10" height="10" rx="2" fill="#161b22"/>
<rect x="37" y="126" width="10" height="10" rx="2" fill="#161b22"/>
<rect x="37" y="139" width="10" height="10" rx="2" fill="#161b22"/>
<rect x="37" y="152" width="10" height="10" rx="2" fill="#161b22"/>
<rect x="37" y="165" width="10" height="10" rx="2" fill="#161b22"/>
<rect x="37" y="178" width="10" height="10" rx="2" fill="#161b22"/>
<rect x="50" y="100" width="10" height="10" rx="2" fill="#161b22"/>
<rect x="50" y="113" width="10" height="10" rx="2" fill="#161b22"/>
<rect x="50" y="126" width="10" height="10" rx="2" fill="#161b22"/>
<rect x="50" y="139" width="10" height="10" rx="2" fill="#161b22"/>
<rect x="50" y="152" width="10" height="10" rx="2" fill="#161b22"/>
<rect x="50" y="165" width="10" height="10" rx="2" fill="#161b22"/>
<rect x="50" y="178" width="10" height="10" rx="2" fill="#161b22"/>
<rect x="63" y="100" width="10" height="10" rx="2" fill="#161b22"/>
<rect x="63" y="113" width="10" height="10" rx="2" fill="#161b22"/>
<rect x="63" y="126" width="10" height="10" rx="2" fill="#161b22"/>
<rect x="63" y="139" width="10" height="10" rx="2" fill="#161b22"/>
<rect x="63" y="152" width="10" height="10" rx="2" fill="#161b22"/>
<rect x="63" y="165" width="10" height="10" rx="2" fill="#161b22"/>
<rect x="63" y="178" width="10" height="10" rx="2" fill="#161b22"/>
<rect x="76" y="100" width="10" height="10" rx="2" fill="#161b22"/>
<rect x="76" y="113" width="10" height="10" rx="2" fill="#161b22"/>
<rect x="76" y="126" width="10" height="10" rx="2" fill="#161b22"/>
<rect x="76" y="139" width="10" height="10" rx="2" fill="#161b22"/>
<rect x="76" y="152" width="10" height="10" rx="2" fill="#161b22"/>
<rect x="76" y="165" width="10" height="10" rx="2" fill="#161b22"/>
<rect x="76" y="178" width="10" height="10" rx="2" fill="#161b22"/>
<rect x="89" y="100" width="10" height="10" rx="2" fill="#161b22"/>
<rect x="89" y="113" width="10" height="10" rx="2" fill="#161b22"/>
<rect x="89" y="126" width="10" height="10" rx="2" fill="#161b22"/>
<rect x="89" y="139" width="10" height="10" rx="2" fill="#161b22"/>
<rect x="89" y="152" width="10" height="10" rx="2" fill="#161b22"/>
<rect x="89" y="165" width="10" height="10" rx="2" fill="#161b22"/>
<rect x="89" y="178" width="10" height="10" rx="2" fill="#161b22"/>
<rect x="102" y="100" width="10" height="10" rx="2" fill="#161b22"/>
<rect x="102" y="113" width="10" height="10" rx="2" fill="#161b22"/>
<rect x="102" y="126" width="10" height="10" rx="2" fill="#161b22"/>
<rect x="102" y="139" width="10" height="10" rx="2" fill="#161b22"/>
<rect x="102" y="152" width="10" height="10" rx="2" fill="#161b22"/>
<rect x="102" y="165" width="10" height="10" rx="2" fill="#161b22"/>
<rect x="102" y="178" width="10" height="10" rx="2" fill="#161b22"/>
<rect x="115" y="100" width="10" height="10" rx="2" fill="#161b22"/>
<rect x="115" y="113" width="10" height="10" rx="2" fill="#161b22"/>
<rect x="115" y="126" width="10" height="10" rx="2" fill="#161b22"/>
<rect x="115" y="139" width="10" height="10" rx="2" fill="#161b22"/>
<rect x="115" y="152" width="10" height="10" rx="2" fill="#161b22"/>
<rect x="115" y="165" width="10" height="10" rx="2" fill="#161b22"/>
<rect x="115" y="178" width="10" height="10" rx="2" fill="#161b22"/>
<rect x="128" y="100" width="10" height="10" rx="2" fill="#161b22"/>
<rect x="128" y="113" width="10" height="10" rx="2" fill="#161b22"/>
<rect x="128" y="126" width="10" height="10" rx="2" fill="#161b22"/>
<rect x="128" y="139" width="10" height="10" rx="2" fill="#161b22"/>
<rect x="128" y="152" width="10" height="10" rx="2" fill="#161b22"/>
<rect x="128" y="165" width="10" height="10" rx="2" fill="#161b22"/>
<rect x="128" y="178" width="10" height="10" rx="2" fill="#161b22"/>
<rect x="141" y="100" width="10" height="10" rx="2" fill="#161b22"/>
<rect x="141" y="113" width="10" height="10" rx="2" fill="#161b22"/>
<rect x="141" y="126" width="10" height="10" rx="2" fill="#161b22"/>
<rect x="141" y="139" width="10" height="10" rx="2" fill="#161b22"/>
<rect x="141" y="152" width="10" height="10" rx="2" fill="#161b22"/>
<rect x="141" y="165" width="10" height="10" rx="2" fill="#161b22"/>
<rect x="141" y="178" width="10" height="10" rx="2" fill="#161b22"/>
<rect x="154" y="100" width="10" height="10" rx="2" fill="#161b22"/>
<rect x="154" y="113" width="10" height="10" rx="2" fill="#161b22"/>
<rect x="154" y="126" width="10" height="10" rx="2" fill="#161b22"/>
<rect x="154" y="139" width="10" height="10" rx="2" fill="#161b22"/>
<rect x="154" y="152" width="10" height="10" rx="2" fill="#161b22"/>
<rect x="154" y="165" width="10" height="10" rx="2" fill="#161b22"/>
<rect x="154" y="178" width="10" height="10" rx="2" fill="#161b22"/>
<rect x="167" y="100" width="10" height="10" rx="2" fill="#161b22"/>
<rect x="167" y="113" width="10" height="10" rx="2" fill="#161b22"/>
<rect x="167" y="126" width="10" height="10" rx="2" fill="#161b22"/>
<rect x="167" y="139" width="10" height="10" rx="2" fill="#161b22"/>
<rect x="167" y="152" width="10" height="10" rx="2" fill="#161b22"/>
<rect x="167" y="165" width="10" height="10" rx="2" fill="#161b22"/>
<rect x="167" y="178" width="10" height="10" rx="2" fill="#161b22"/>
<rect x="180" y="100" width="10" height="10" rx="2" fill="#161b22"/>
<rect x="180" y="113" width="10" height="10" rx="2" fill="#161b22"/>
<rect x="180" y="126" width="10" height="10" rx="2" fill="#161b22"/>
<rect x="180" y="139" width="10" height="10" rx="2" fill="#161b22"/>
<rect x="180" y="152" width="10" height="10" rx="2" fill="#161b22"/>
<rect x="180" y="165" width="10" height="10" rx="2" fill="#161b22"/>
<rect x="180" y="178" width="10" height="10" rx="2" fill="#161b22"/>
<rect x="193" y="100" width="10" height="10" rx="2" fill="#161b22"/>
<rect x="193" y="113" width="10" height="10" rx="2" fill="#161b22"/>
<rect x="193" y="126" width="10" height="10" rx="2" fill="#161b22"/>
<rect x="193" y="139" width="10" height="10" rx="2" fill="#161b22"/>
<rect x="193" y="152" width="10" height="10" rx="2" fill="#161b22"/>
<rect x="193" y="165" width="10" height="10" rx="2" fill="#161b22"/>
<rect x="193" y="178" width="10" height="10" rx="2" fill="#161b22"/>
<rect x="206" y="100" width="10" height="10" rx="2" fill="#161b22"/>
<rect x="206" y="113" width="10" height="10" rx="2" fill="#161b22"/>
<rect x="206" y="126" width="10" height="10" rx="2" fill="#161b22"/>
<rect x="206" y="139" width="10" height="10" rx="2" fill="#161b22"/>
<rect x="206" y="152" width="10" height="10" rx="2" fill="#161b22"/>
<rect x="206" y="165" width="10" height="10" rx="2" fill="#161b22"/>
<rect x="206" y="178" width="10" height="10" rx="2" fill="#161b22"/>
<rect x="219" y="100" width="10" height="10" rx="2" fill="#161b22"/>
<rect x="219" y="113" width="10" height="10" rx="2" fill="#161b22"/>
<rect x="219" y="126" width="10" height="10" rx="2" fill="#161b22"/>
<rect x="219" y="139" width="10" height="10" rx="2" fill="#161b22"/>
<rect x="219" y="152" width="10" height="10" rx="2" fill="#161b22"/>
<rect x="219" y="165" width="10" height="10" rx="2" fill="#161b22"/>
<rect x="219" y="178" width="10" height="10" rx="2" fill="#161b22"/>
<rect x="232" y="100" width="10" height="10" rx="2" fill="#161b22"/>
<rect x="232" y="113" width="10" height="10" rx="2" fill="#161b22"/>
<rect x="232" y="126" width="10" height="10" rx="2" fill="#161b22"/>
<rect x="232" y="139" width="10" height="10" rx="2" fill="#161b22"/>
<rect x="232" y="152" width="10" height="10" rx="2" fill="#161b22"/>
<rect x="232" y="165" width="10" height="10" rx="2" fill="#161b22"/>
<rect x="232" y="178" width="10" height="10" rx="2" fill="#161b22"/>
<rect x="245" y="100" width="10" height="10" rx="2" fill="#161b22"/>
<rect x="245" y="113" width="10" height="10" rx="2" fill="#161b22"/>
<rect x="245" y="126" width="10" height="10" rx="2" fill="#161b22"/>
<rect x="245" y="139" width="10" height="10" rx="2" fill="#161b22"/>
<rect x="245" y="152" width="10" height="10" rx="2" fill="#161b22"/>
<rect x="245" y="165" width="10" height="10" rx="2" fill="#161b22"/>
<rect x="245" y="178" width="10" height="10" rx="2" fill="#161b22"/>
<rect x="258" y="100" width="10" height="10" rx="2" fill="#161b22"/>
<rect x="258" y="113" width="10" height="10" rx="2" fill="#161b22"/>
<rect x="258" y="126" width="10" height="10" rx="2" fill="#161b22"/>
<rect x="258" y="139" width="10" height="10" rx="2" fill="#161b22"/>
<rect x="258" y="152" width="10" height="10" rx="2" fill="#161b22"/>
<rect x="258" y="165" width="10" height="10" rx="2" fill="#161b22"/>
<rect x="258" y="178" width="10" height="10" rx="2" fill="#161b22"/>
<rect x="271" y="100" width="10" height="10" rx="2" fill="#161b22"/>
<rect x="271" y="113" width="10" height="10" rx="2" fill="#161b22"/>
<rect x="271" y="126" width="10" height="10" rx="2" fill="#161b22"/>
<rect x="271" y="139" width="10" height="10" rx="2" fill="#161b22"/>
<rect x="271" y="152" width="10" height="10" rx="2" fill="#161b22"/>
<rect x="271" y="165" width="10" height="10" rx="2" fill="#161b22"/>
<rect x="271" y="178" width="10" height="10" rx="2" fill="#161b22"/>
<rect x="284" y="100" width="10" height="10" rx="2" fill="#161b22"/>
<rect x="284" y="113" width="10" height="10" rx="2" fill="#161b22"/>
<rect x="284" y="126" width="10" height="10" rx="2" fill="#161b22"/>
<rect x="284" y="139" width="10" height="10" rx="2" fill="#161b22"/>
<rect x="284" y="152" width="10" height="10" rx="2" fill="#161b22"/>
<rect x="284" y="165" width="10" height="10" rx="2" fill="#161b22"/>
<rect x="284" y="178" width="10" height="10" rx="2" fill="#161b22"/>
<rect x="297" y="100" width="10" height="10" rx="2" fill="#161b22"/>
<rect x="297" y="113" width="10" height="10" rx="2" fill="#161b22"/>
<rect x="297" y="126" width="10" height="10" rx="2" fill="#161b22"/>
<rect x="297" y="139" width="10" height="10" rx="2" fill="#161b22"/>
<rect x="297" y="152" width="10" height="10" rx="2" fill="#161b22"/>
<rect x="297" y="165" width="10" height="10" rx="2" fill="#161b22"/>
<rect x="297" y="178" width="10" height="10" rx="2" fill="#161b22"/>
<rect x="310" y="100" width="10" height="10" rx="2" fill="#161b22"/>
<rect x="310" y="113" width="10" height="10" rx="2" fill="#161b22"/>
<rect x="310" y="126" width="10" height="10" rx="2" fill="#161b22"/>
<rect x="310" y="139" width="10" height="10" rx="2" fill="#161b22"/>
<rect x="310" y="152" width="10" height="10" rx="2" fill="#161b22"/>
<rect x="310" y="165" width="10" height="10" rx="2" fill="#161b22"/>
<rect x="310" y="178" width="10" height="10" rx="2" fill="#161b22"/>
<rect x="323" y="100" width="10" height="10" rx="2" fill="#161b22"/>
<rect x="323" y="113" width="10" height="10" rx="2" fill="#161b22"/>
<rect x="323" y="126" width="10" height="10" rx="2" fill="#161b22"/>
<rect x="323" y="139" width="10" height="10" rx="2" fill="#161b22"/>
<rect x="323" y="152" width="10" height="10" rx="2" fill="#161b22"/>
<rect x="323" y="165" width="10" height="10" rx="2" fill="#161b22"/>
<rect x="323" y="178" width="10" height="10" rx="2" fill="#161b22"/>
<rect x="336" y="100" width="10" height="10" rx="2" fill="#161b22"/>
<rect x="336" y="113" width="10" height="10" rx="2" fill="#161b22"/>
<rect x="336" y="126" width="10" height="10" rx="2" fill="#161b22"/>
<rect x="336" y="139" width="10" height="10" rx="2" fill="#161b22"/>
<rect x="336" y="152" width="10" height="10" rx="2" fill="#161b22"/>
<rect x="336" y="165" width="10" height="10" rx="2" fill="#161b22"/>
<rect x="336" y="178" width="10" height="10" rx="2" fill="#161b22"/>
<rect x="349" y="100" width="10" height="10" rx="2" fill="#161b22"/>
<rect x="349" y="113" width="10" height="10" rx="2" fill="#161b22"/>
<rect x="349" y="126" width="10" height="10" rx="2" fill="#161b22"/>
<rect x="349" y="139" width="10" height="10" rx="2" fill="#161b22"/>
<rect x="349" y="152" width="10" height="10" rx="2" fill="#161b22"/>
<rect x="349" y="165" width="10" height="10" rx="2" fill="#161b22"/>
<rect x="349" y="178" width="10" height="10" rx="2" fill="#161b22"/>
<rect x="362" y="100" width="10" height="10" rx="2" fill="#161b22"/>
<rect x="362" y="113" width="10" height="10" rx="2" fill="#161b22"/>
<rect x="362" y="126" width="10" height="10" rx="2" fill="#161b22"/>
<rect x="362" y="139" width="10" height="10" rx="2" fill="#161b22"/>
<rect x="362" y="152" width="10" height="10" rx="2" fill="#161b22"/>
<rect x="362" y="165" width="10" height="10" rx="2" fill="#161b22"/>
<rect x="362" y="178" width="10" height="10" rx="2" fill="#161b22"/>
<rect x="375" y="100" width="10" height="10" rx="2" fill="#161b22"/>
<rect x="375" y="113" width="10" height="10" rx="2" fill="#161b22"/>
<rect x="375" y="126" width="10" height="10" rx="2" fill="#161b22"/>
<rect x="375" y="139" width="10" height="10" rx="2" fill="#161b22"/>
<rect x="375" y="152" width="10" height="10" rx="2" fill="#161b22"/>
<rect x="375" y="165" width="10" height="10" rx="2" fill="#161b22"/>
<rect x="375" y="178" width="10" height="10" rx="2" fill="#161b22"/>
<rect x="388" y="100" width="10" height="10" rx="2" fill="#161b22"/>
<rect x="388" y="113" width="10" height="10" rx="2" fill="#161b22"/>
<rect x="388" y="126" width="10" height="10" rx="2" fill="#161b22"/>
<rect x="388" y="139" width="10" height="10" rx="2" fill="#161b22"/>
<rect x="388" y="152" width="10" height="10" rx="2" fill="#161b22"/>
<rect x="388" y="165" width="10" height="10" rx="2" fill="#161b22"/>
<rect x="388" y="178" width="10" height="10" rx="2" fill="#161b22"/>
<rect x="401" y="100" width="10" height="10" rx="2" fill="#161b22"/>
<rect x="401" y="113" width="10" height="10" rx="2" fill="#161b22"/>
<rect x="401" y="126" width="10" height="10" rx="2" fill="#161b22"/>
<rect x="401" y="139" width="10" height="10" rx="2" fill="#161b22"/>
<rect x="401" y="152" width="10" height="10" rx="2" fill="#161b22"/>
<rect x="401" y="165" width="10" height="10" rx="2" fill="#161b22"/>
<rect x="401" y="178" width="10" height="10" rx="2" fill="#161b22"/>
<rect x="414" y="100" width="10" height="10" rx="2" fill="#161b22"/>
<rect x="414" y="113" width="10" height="10" rx="2" fill="#161b22"/>
<rect x="414" y="126" width="10" height="10" rx="2" fill="#161b22"/>
<rect x="414" y="139" width="10" height="10" rx="2" fill="#161b22"/>
<rect x="414" y="152" width="10" height="10" rx="2" fill="#161b22"/>
<rect x="414" y="165" width="10" height="10" rx="2" fill="#161b22"/>
<rect x="414" y="178" width="10" height="10" rx="2" fill="#161b22"/>
<rect x="427" y="100" width="10" height="10" rx="2" fill="#161b22"/>
<rect x="427" y="113" width="10" height="10" rx="2" fill="#161b22"/>
<rect x="427" y="126" width="10" height="10" rx="2" fill="#161b22"/>
<rect x="427" y="139" width="10" height="10" rx="2" fill="#161b22"/>
<rect x="427" y="152" width="10" height="10" rx="2" fill="#161b22"/>
<rect x="427" y="165" width="10" height="10" rx="2" fill="#161b22"/>
<rect x="427" y="178" width="10" height="10" rx="2" fill="#161b22"/>
<rect x="440" y="100" width="10" height="10" rx="2" fill="#161b22"/>
<rect x="440" y="113" width="10" height="10" rx="2" fill="#161b22"/>
<rect x="440" y="126" width="10" height="10" rx="2" fill="#161b22"/>
<rect x="440" y="139" width="10" height="10" rx="2" fill="#161b22"/>
<rect x="440" y="152" width="10" height="10" rx="2" fill="#161b22"/>
<rect x="440" y="165" width="10" height="10" rx="2" fill="#161b22"/>
<rect x="440" y="178" width="10" height="10" rx="2" fill="#161b22"/>
<rect x="453" y="100" width="10" height="10" rx="2" fill="#161b22"/>
<rect x="453" y="113" width="10" height="10" rx="2" fill="#161b22"/>
<rect x="453" y="126" width="10" height="10" rx="2" fill="#161b22"/>
<rect x="453" y="139" width="10" height="10" rx="2" fill="#161b22"/>
<rect x="453" y="152" width="10" height="10" rx="2" fill="#161b22"/>
<rect x="453" y="165" width="10" height="10" rx="2" fill="#161b22"/>
<rect x="453" y="178" width="10" height="10" rx="2" fill="#161b22"/>
<rect x="466" y="100" width="10" height="10" rx="2" fill="#161b22"/>
<rect x="466" y="113" width="10" height="10" rx="2" fill="#161b22"/>
<rect x="466" y="126" width="10" height="10" rx="2" fill="#161b22"/>
<rect x="466" y="139" width="10" height="10" rx="2" fill="#161b22"/>
<rect x="466" y="152" width="10" height="10" rx="2" fill="#161b22"/>
<rect x="466" y="165" width="10" height="10" rx="2" fill="#161b22"/>
<rect x="466" y="178" width="10" height="10" rx="2" fill="#161b22"/>
<rect x="479" y="100" width="10" height="10" rx="2" fill="#161b22"/>
<rect x="479" y="113" width="10" height="10" rx="2" fill="#161b22"/>
<rect x="479" y="126" width="10" height="10" rx="2" fill="#161b22"/>
<rect x="479" y="139" width="10" height="10" rx="2" fill="#161b22"/>
<rect x="479" y="152" width="10" height="10" rx="2" fill="#161b22"/>
<rect x="479" y="165" width="10" height="10" rx="2" fill="#161b22"/>
<rect x="479" y="178" width="10" height="10" rx="2" fill="#161b22"/>
<rect x="492" y="100" width="10" height="10" rx="2" fill="#161b22"/>
<rect x="492" y="113" width="10" height="10" rx="2" fill="#161b22"/>
<rect x="492" y="126" width="10" height="10" rx="2" fill="#161b22"/>
<rect x="492" y="139" width="10" height="10" rx="2" fill="#161b22"/>
<rect x="492" y="152" width="10" height="10" rx="2" fill="#161b22"/>
<rect x="492" y="165" width="10" height="10" rx="2" fill="#161b22"/>
<rect x="492" y="178" width="10" height="10" rx="2" fill="#161b22"/>
<rect x="505" y="100" width="10" height="10" rx="2" fill="#161b22"/>
<rect x="505" y="113" width="10" height="10" rx="2" fill="#161b22"/>
<rect x="505" y="126" width="10" height="10" rx="2" fill="#161b22"/>
<rect x="505" y="139" width="10" height="10" rx="2" fill="#161b22"/>
<rect x="505" y="152" width="10" height="10" rx="2" fill="#161b22"/>
<rect x="505" y="165" width="10" height="10" rx="2" fill="#161b22"/>
<rect x="505" y="178" width="10" height="10" rx="2" fill="#0e4429"/>
<rect x="518" y="100" width="10" height="10" rx="2" fill="#161b22"/>
<rect x="518" y="113" width="10" height="10" rx="2" fill="#161b22"/>
<rect x="518" y="126" width="10" height="10" rx="2" fill="#161b22"/>
<rect x="518" y="139" width="10" height="10" rx="2" fill="#161b22"/>
<rect x="518" y="152" width="10" height="10" rx="2" fill="#161b22"/>
<rect x="518" y="165" width="10" height="10" rx="2" fill="#161b22"/>
<rect x="518" y="178" width="10" height="10" rx="2" fill="#161b22"/>
<rect x="531" y="100" width="10" height="10" rx="2" fill="#161b22"/>
<rect x="531" y="113" width="10" height="10" rx="2" fill="#161b22"/>
<rect x="531" y="126" width="10" height="10" rx="2" fill="#161b22"/>
<rect x="531" y="139" width="10" height="10" rx="2" fill="#161b22"/>
<rect x="531" y="152" width="10" height="10" rx="2" fill="#161b22"/>
<rect x="531" y="165" width="10" height="10" rx="2" fill="#161b22"/>
<rect x="531" y="178" width="10" height="10" rx="2" fill="#161b22"/>
<rect x="544" y="100" width="10" height="10" rx="2" fill="#161b22"/>
<rect x="544" y="113" width="10" height="10" rx="2" fill="#161b22"/>
<rect x="544" y="126" width="10" height="10" rx="2" fill="#161b22"/>
<rect x="544" y="139" width="10" height="10" rx="2" fill="#161b22"/>
<rect x="544" y="152" width="10" height="10" rx="2" fill="#161b22"/>
<rect x="544" y="165" width="10" height="10" rx="2" fill="#161b22"/>
<rect x="544" y="178" width="10" height="10" rx="2" fill="#161b22"/>
<rect x="557" y="100" width="10" height="10" rx="2" fill="#161b22"/>
<rect x="557" y="113" width="10" height="10" rx="2" fill="#161b22"/>
<rect x="557" y="126" width="10" height="10" rx="2" fill="#161b22"/>
<rect x="557" y="139" width="10" height="10" rx="2" fill="#161b22"/>
<rect x="557" y="152" width="10" height="10" rx="2" fill="#161b22"/>
<rect x="557" y="165" width="10" height="10" rx="2" fill="#161b22"/>
<rect x="557" y="178" width="10" height="10" rx="2" fill="#161b22"/>
<rect x="570" y="100" width="10" height="10" rx="2" fill="#161b22"/>
<rect x="570" y="113" width="10" height="10" rx="2" fill="#161b22"/>
<rect x="570" y="126" width="10" height="10" rx="2" fill="#161b22"/>
<rect x="570" y="139" width="10" height="10" rx="2" fill="#161b22"/>
<rect x="570" y="152" width="10" height="10" rx="2" fill="#161b22"/>
<rect x="570" y="165" width="10" height="10" rx="2" fill="#161b22"/>
<rect x="570" y="178" width="10" height="10" rx="2" fill="#161b22"/>
<rect x="583" y="100" width="10" height="10" rx="2" fill="#161b22"/>
<rect x="583" y="113" width="10" height="10" rx="2" fill="#161b22"/>
<rect x="583" y="126" width="10" height="10" rx="2" fill="#161b22"/>
<rect x="583" y="139" width="10" height="10" rx="2" fill="#161b22"/>
<rect x="583" y="152" width="10" height="10" rx="2" fill="#161b22"/>
<rect x="583" y="165" width="10" height="10" rx="2" fill="#161b22"/>
<rect x="583" y="178" width="10" height="10" rx="2" fill="#161b22"/>
<rect x="596" y="100" width="10" height="10" rx="2" fill="#161b22"/>
<rect x="596" y="113" width="10" height="10" rx="2" fill="#161b22"/>
<rect x="596" y="126" width="10" height="10" rx="2" fill="#161b22"/>
<rect x="596" y="139" width="10" height="10" rx="2" fill="#161b22"/>
<rect x="596" y="152" width="10" height="10" rx="2" fill="#161b22"/>
<rect x="596" y="165" width="10" height="10" rx="2" fill="#161b22"/>
<rect x="596" y="178" width="10" height="10" rx="2" fill="#161b22"/>
<rect x="609" y="100" width="10" height="10" rx="2" fill="#161b22"/>
<rect x="609" y="113" width="10" height="10" rx="2" fill="#161b22"/>
<rect x="609" y="126" width="10" height="10" rx="2" fill="#161b22"/>
<rect x="609" y="139" width="10" height="10" rx="2" fill="#161b22"/>
<rect x="609" y="152" width="10" height="10" rx="2" fill="#161b22"/>
<rect x="609" y="165" width="10" height="10" rx="2" fill="#161b22"/>
<rect x="609" y="178" width="10" height="10" rx="2" fill="#161b22"/>
<rect x="622" y="100" width="10" height="10" rx="2" fill="#161b22"/>
<rect x="622" y="113" width="10" height="10" rx="2" fill="#161b22"/>
<rect x="622" y="126" width="10" height="10" rx="2" fill="#161b22"/>
<rect x="622" y="139" width="10" height="10" rx="2" fill="#161b22"/>
<rect x="622" y="152" width="10" height="10" rx="2" fill="#161b22"/>
<rect x="622" y="165" width="10" height="10" rx="2" fill="#161b22"/>
<rect x="622" y="178" width="10" height="10" rx="2" fill="#161b22"/>
<rect x="635" y="100" width="10" height="10" rx="2" fill="#161b22"/>
<rect x="635" y="113" width="10" height="10" rx="2" fill="#161b22"/>
<rect x="635" y="126" width="10" height="10" rx="2" fill="#161b22"/>
<rect x="635" y="139" width="10" height="10" rx="2" fill="#161b22"/>
<rect x="635" y="152" width="10" height="10" rx="2" fill="#161b22"/>
<rect x="635" y="165" width="10" height="10" rx="2" fill="#161b22"/>
<rect x="635" y="178" width="10" height="10" rx="2" fill="#161b22"/>
<rect x="648" y="100" width="10" height="10" rx="2" fill="#161b22"/>
<rect x="648" y="113" width="10" height="10" rx="2" fill="#161b22"/>
<rect x="648" y="126" width="10" height="10" rx="2" fill="#161b22"/>
<rect x="648" y="139" width="10" height="10" rx="2" fill="#161b22"/>
<rect x="648" y="152" width="10" height="10" rx="2" fill="#161b22"/>
<rect x="648" y="165" width="10" height="10" rx="2" fill="#161b22"/>
<rect x="648" y="178" width="10" height="10" rx="2" fill="#161b22"/>
<rect x="661" y="100" width="10" height="10" rx="2" fill="#161b22"/>
<rect x="661" y="113" width="10" height="10" rx="2" fill="#161b22"/>
<rect x="661" y="126" width="10" height="10" rx="2" fill="#0e4429"/>
<rect x="661" y="139" width="10" height="10" rx="2" fill="#161b22"/>
<rect x="661" y="152" width="10" height="10" rx="2" fill="#161b22"/>
<rect x="661" y="165" width="10" height="10" rx="2" fill="#161b22"/>
<rect x="661" y="178" width="10" height="10" rx="2" fill="#161b22"/>
<rect x="674" y="100" width="10" height="10" rx="2" fill="#161b22"/>
<rect x="674" y="113" width="10" height="10" rx="2" fill="#161b22"/>
<rect x="674" y="126" width="10" height="10" rx="2" fill="#161b22"/>
<rect x="674" y="139" width="10" height="10" rx="2" fill="#161b22"/>
<rect x="674" y="152" width="10" height="10" rx="2" fill="#161b22"/>
<rect x="674" y="165" width="10" height="10" rx="2" fill="#161b22"/>
<rect x="674" y="178" width="10" height="10" rx="2" fill="#161b22"/>
<rect x="687" y="100" width="10" height="10" rx="2" fill="#161b22"/>
<rect x="687" y="113" width="10" height="10" rx="2" fill="#161b22"/>
<rect x="687" y="126" width="10" height="10" rx="2" fill="#161b22"/>
<rect x="687" y="139" width="10" height="10" rx="2" fill="#161b22"/>
<rect x="687" y="152" width="10" height="10" rx="2" fill="#161b22"/>
<rect x="687" y="165" width="10" height="10" rx="2" fill="#161b22"/>
<rect x="687" y="178" width="10" height="10" rx="2" fill="#161b22"/>
<rect x="700" y="100" width="10" height="10" rx="2" fill="#161b22"/>
<rect x="700" y="113" width="10" height="10" rx="2" fill="#161b22"/>
<rect x="700" y="126" width="10" height="10" rx="2" fill="#39d353"/>
<rect x="700" y="139" width="10" height="10" rx="2" fill="#161b22"/>
</svg>